<svg xmlns="http://www.w3.org/2000/svg" width="73" height="72" fill="none"><path fill="#BBB" fill-opacity=".1" d="M39.393 2.642c0-1.607 1.383-2.875 2.966-2.602 17.128 2.955 30.26 17.655 30.26 35.513 0 20.01-16.486 36.058-36.608 36.058-17.594 0-32.406-12.269-35.85-28.727-.337-1.604.942-3.04 2.58-3.04h6.097c1.323 0 2.44.954 2.795 2.228C14.55 52.51 24.293 60.27 36.011 60.27c14.052 0 25.269-11.162 25.269-24.718 0-11.647-8.28-21.526-19.525-24.077-1.339-.304-2.362-1.448-2.362-2.82zm-8.06 6.337c0 1.32-.95 2.435-2.222 2.787-8.675 2.4-15.403 9.21-17.602 17.73-.336 1.302-1.465 2.288-2.81 2.288H2.634c-1.622 0-2.896-1.41-2.59-3.002C2.79 14.537 14.026 3.327 28.279.304c1.609-.341 3.054.938 3.054 2.583z"/><path fill="url(#a)" d="M39.416 2.639c0-1.607 1.383-2.875 2.966-2.602C59.508 2.995 72.636 17.694 72.636 35.55c0 20.01-16.486 36.057-36.608 36.057-17.594 0-32.406-12.268-35.851-28.726-.336-1.604.942-3.04 2.58-3.04h6.098c1.322 0 2.44.953 2.795 2.227 2.915 10.438 12.66 18.2 24.378 18.2 14.052 0 25.268-11.163 25.269-24.718 0-11.645-8.278-21.523-19.52-24.076-1.339-.304-2.361-1.448-2.361-2.82z"/><defs><linearGradient id="a" x1=".123" x2="72.636" y1="35.804" y2="35.804" gradientUnits="userSpaceOnUse"><stop stop-color="#0188FF"/><stop offset="1" stop-color="#AF53FF"/></linearGradient></defs></svg>